<svg id="Group_30" data-name="Group 30" xmlns="http://www.w3.org/2000/svg" width="171.725" height="167.187" viewBox="0 0 171.725 167.187">
  <path id="Path_26" data-name="Path 26" d="M88.64,63.258V27.105a9.038,9.038,0,0,0-4.519-7.818L52.488,1.211a9.038,9.038,0,0,0-9.038,0L11.816,19.287A9.038,9.038,0,0,0,7.3,27.105V63.258a9.037,9.037,0,0,0,4.519,7.818L43.45,89.152a9.039,9.039,0,0,0,9.038,0L84.121,71.076a9.038,9.038,0,0,0,4.519-7.818Z" transform="translate(37.894)" fill="#5037f5"/>
  <path id="Path_27" data-name="Path 27" d="M95.937,75.663V39.51a9.04,9.04,0,0,0-4.519-7.818L59.785,13.616a9.039,9.039,0,0,0-9.038,0L19.113,31.692a9.04,9.04,0,0,0-4.519,7.818V75.663a9.038,9.038,0,0,0,4.519,7.818l31.633,18.076a9.039,9.039,0,0,0,9.038,0L91.418,83.481a9.038,9.038,0,0,0,4.519-7.818Z" transform="translate(75.787 64.419)" fill="#9d8eff"/>
  <path id="Path_28" data-name="Path 28" d="M81.343,75.663V39.51a9.04,9.04,0,0,0-4.519-7.818L45.191,13.616a9.039,9.039,0,0,0-9.038,0L4.519,31.692A9.04,9.04,0,0,0,0,39.51V75.663a9.038,9.038,0,0,0,4.519,7.818l31.633,18.076a9.039,9.039,0,0,0,9.038,0L76.824,83.481a9.038,9.038,0,0,0,4.519-7.818Z" transform="translate(0 64.419)" fill="#5037f5"/>
</svg>
