<svg xmlns="http://www.w3.org/2000/svg" width="24" height="24" viewBox="0 0 24 24">
  <g id="vuesax_outline_video" data-name="vuesax/outline/video" transform="translate(-108 -252)">
    <g id="video">
      <path id="Vector" d="M10.88,17.72H4.81A4.472,4.472,0,0,1,0,12.91V4.81C0,1.35,1.35,0,4.81,0h6.07c3.46,0,4.81,1.35,4.81,4.81v8.1C15.69,16.37,14.34,17.72,10.88,17.72ZM4.81,1.52c-2.61,0-3.29.68-3.29,3.29v8.1A2.983,2.983,0,0,0,4.81,16.2h6.07c2.61,0,3.29-.68,3.29-3.29V4.81c0-2.61-.68-3.29-3.29-3.29Z" transform="translate(110 255.14)" fill="#5037f5"/>
      <path id="Vector-2" data-name="Vector" d="M4.6,12.222a2.826,2.826,0,0,1-1.61-.58L.32,9.772A.754.754,0,0,1,0,9.152V3.072a.754.754,0,0,1,.32-.62L2.99.582A2.308,2.308,0,0,1,5.46.2a2.3,2.3,0,0,1,1.11,2.24v7.33a2.292,2.292,0,0,1-1.11,2.24A1.748,1.748,0,0,1,4.6,12.222ZM1.51,8.752l2.35,1.64c.45.31.77.34.9.27s.29-.35.29-.89V2.452c0-.55-.16-.82-.29-.89s-.45-.04-.9.27L1.51,3.472Z" transform="translate(124.18 257.888)" fill="#5037f5"/>
      <path id="Vector-3" data-name="Vector" d="M2.25,4.5A2.25,2.25,0,1,1,4.5,2.25,2.253,2.253,0,0,1,2.25,4.5Zm0-3A.75.75,0,1,0,3,2.25.755.755,0,0,0,2.25,1.5Z" transform="translate(117.25 259.25)" fill="#5037f5"/>
      <path id="Vector-4" data-name="Vector" d="M0,0H24V24H0Z" transform="translate(108 252)" fill="none" opacity="0"/>
    </g>
  </g>
</svg>
